<svg width="128" height="128" viewBox="0 0 128 128" fill="none" xmlns="http://www.w3.org/2000/svg">
<rect width="128" height="128" rx="32" fill="#1F1E24"/>
<path d="M91.3145 34.704L70.7505 96.714C70.4678 97.6327 69.8671 98.41 68.9485 99.046C68.1005 99.682 67.1818 100 66.1925 100H61.8465C60.8571 100 59.9385 99.682 59.0905 99.046C58.3131 98.41 57.7478 97.6327 57.3945 96.714L36.8305 34.704C36.2651 33.1493 36.4771 31.7007 37.4665 30.358C38.3851 29.0153 39.6925 28.344 41.3885 28.344H44.4625C46.7945 28.344 48.3491 29.4393 49.1265 31.63L63.4365 75.302C63.8605 75.7967 64.2491 75.7967 64.6025 75.302C66.0865 70.7087 67.6058 66.0093 69.1605 61.204C70.7858 56.328 72.3051 51.77 73.7185 47.53C75.1318 43.2193 76.2978 39.6507 77.2165 36.824L78.9125 31.63C79.2658 30.6407 79.8665 29.8633 80.7145 29.298C81.6331 28.662 82.5871 28.344 83.5765 28.344H86.6505C88.3465 28.344 89.6538 29.0153 90.5725 30.358C91.5618 31.63 91.8091 33.0787 91.3145 34.704Z" fill="white"/>
</svg>
