<svg width="128" height="128" viewBox="0 0 128 128" fill="none" xmlns="http://www.w3.org/2000/svg">
<g clip-path="url(#clip0_1318_946)">
<rect width="128" height="128" rx="32" fill="#1F1E24"/>
<path d="M74.3145 31.704L53.7505 93.714C53.4678 94.6327 52.8671 95.41 51.9485 96.046C51.1005 96.682 50.1818 97 49.1925 97H44.8465C43.8571 97 42.9385 96.682 42.0905 96.046C41.3131 95.41 40.7478 94.6327 40.3945 93.714L19.8305 31.704C19.2651 30.1493 19.4771 28.7007 20.4665 27.358C21.3851 26.0153 22.6925 25.344 24.3885 25.344H27.4625C29.7945 25.344 31.3491 26.4393 32.1265 28.63L46.4365 72.302C46.8605 72.7967 47.2491 72.7967 47.6025 72.302C49.0865 67.7087 50.6058 63.0093 52.1605 58.204C53.7858 53.328 55.3051 48.77 56.7185 44.53C58.1318 40.2193 59.2978 36.6507 60.2165 33.824L61.9125 28.63C62.2658 27.6407 62.8665 26.8633 63.7145 26.298C64.6331 25.662 65.5871 25.344 66.5765 25.344H69.6505C71.3465 25.344 72.6538 26.0153 73.5725 27.358C74.5618 28.63 74.8091 30.0787 74.3145 31.704Z" fill="white"/>
<path d="M66.6163 100.624C66.6163 102.128 66.0883 103.408 65.0323 104.464C64.0083 105.488 62.7603 106 61.2883 106H54.6163C53.1443 106 51.8803 105.488 50.8243 104.464C49.7683 103.408 49.2403 102.128 49.2403 100.624V75.76C49.2403 75.12 49.4483 74.592 49.8643 74.176C50.3123 73.76 50.8403 73.552 51.4483 73.552H52.7923C53.4003 73.552 53.9123 73.76 54.3283 74.176C54.7443 74.592 54.9523 75.12 54.9523 75.76V80.56C54.9523 80.72 55.0163 80.864 55.1443 80.992C55.3043 81.088 55.4643 81.136 55.6243 81.136H61.2883C62.2803 81.136 63.1763 81.376 63.9763 81.856C64.7763 82.336 65.4163 82.992 65.8963 83.824C66.3763 84.624 66.6163 85.52 66.6163 86.512V100.624ZM60.9523 99.712V87.52C60.9523 87.072 60.7283 86.848 60.2803 86.848H55.6243C55.4643 86.848 55.3043 86.912 55.1443 87.04C55.0163 87.168 54.9523 87.328 54.9523 87.52V99.712C54.9523 99.872 55.0163 100.016 55.1443 100.144C55.3043 100.272 55.4643 100.336 55.6243 100.336H60.2803C60.7283 100.336 60.9523 100.128 60.9523 99.712ZM87.8976 100.624C87.8976 102.128 87.3696 103.408 86.3136 104.464C85.2896 105.488 84.0416 106 82.5696 106H75.8976C74.4256 106 73.1616 105.488 72.1056 104.464C71.0496 103.408 70.5216 102.128 70.5216 100.624V86.512C70.5216 85.52 70.7616 84.624 71.2416 83.824C71.7536 82.992 72.4096 82.336 73.2096 81.856C74.0096 81.376 74.9056 81.136 75.8976 81.136H82.5696C83.5616 81.136 84.4576 81.376 85.2576 81.856C86.0576 82.336 86.6976 82.992 87.1776 83.824C87.6576 84.624 87.8976 85.52 87.8976 86.512V100.624ZM82.2336 99.712V87.52C82.2336 87.328 82.1536 87.168 81.9936 87.04C81.8656 86.912 81.7216 86.848 81.5616 86.848H76.9056C76.7456 86.848 76.5856 86.912 76.4256 87.04C76.2976 87.168 76.2336 87.328 76.2336 87.52V99.712C76.2336 99.872 76.2976 100.016 76.4256 100.144C76.5856 100.272 76.7456 100.336 76.9056 100.336H81.5616C81.7216 100.336 81.8656 100.272 81.9936 100.144C82.1536 100.016 82.2336 99.872 82.2336 99.712ZM109.179 100.624C109.179 102.128 108.651 103.408 107.595 104.464C106.571 105.488 105.323 106 103.851 106H97.1788C95.7068 106 94.4428 105.488 93.3868 104.464C92.3308 103.408 91.8028 102.128 91.8028 100.624V86.512C91.8028 85.52 92.0428 84.624 92.5228 83.824C93.0348 82.992 93.6908 82.336 94.4908 81.856C95.2908 81.376 96.1868 81.136 97.1788 81.136H103.851C104.843 81.136 105.739 81.376 106.539 81.856C107.339 82.336 107.979 82.992 108.459 83.824C108.939 84.624 109.179 85.52 109.179 86.512V100.624ZM103.515 99.712V87.52C103.515 87.328 103.435 87.168 103.275 87.04C103.147 86.912 103.003 86.848 102.843 86.848H98.1868C98.0268 86.848 97.8668 86.912 97.7068 87.04C97.5788 87.168 97.5148 87.328 97.5148 87.52V99.712C97.5148 99.872 97.5788 100.016 97.7068 100.144C97.8668 100.272 98.0268 100.336 98.1868 100.336H102.843C103.003 100.336 103.147 100.272 103.275 100.144C103.435 100.016 103.515 99.872 103.515 99.712ZM121.82 103.792C121.82 104.4 121.596 104.928 121.148 105.376C120.732 105.792 120.22 106 119.612 106H118.412C116.94 106 115.676 105.488 114.62 104.464C113.564 103.408 113.036 102.128 113.036 100.624V75.76C113.036 75.12 113.244 74.592 113.66 74.176C114.108 73.76 114.636 73.552 115.244 73.552H116.588C117.196 73.552 117.708 73.76 118.124 74.176C118.572 74.592 118.796 75.12 118.796 75.76V99.712C118.796 100.128 118.988 100.336 119.372 100.336H119.612C120.22 100.336 120.732 100.544 121.148 100.96C121.596 101.376 121.82 101.904 121.82 102.544V103.792Z" fill="#DE8C00"/>
</g>
<defs>
<clipPath id="clip0_1318_946">
<rect width="128" height="128" rx="32" fill="white"/>
</clipPath>
</defs>
</svg>
