<svg width="128" height="128" viewBox="0 0 128 128" fill="none" xmlns="http://www.w3.org/2000/svg">
<rect width="128" height="128" rx="32" fill="#1F1E24"/>
<path d="M77.127 34.704L56.563 96.714C56.2803 97.6327 55.6796 98.41 54.761 99.046C53.913 99.682 52.9943 100 52.005 100H47.659C46.6696 100 45.751 99.682 44.903 99.046C44.1256 98.41 43.5603 97.6327 43.207 96.714L22.643 34.704C22.0776 33.1493 22.2896 31.7007 23.279 30.358C24.1976 29.0153 25.505 28.344 27.201 28.344H30.275C32.607 28.344 34.1616 29.4393 34.939 31.63L49.249 75.302C49.673 75.7967 50.0616 75.7967 50.415 75.302C51.899 70.7087 53.4183 66.0093 54.973 61.204C56.5983 56.328 58.1176 51.77 59.531 47.53C60.9443 43.2193 62.1103 39.6507 63.029 36.824L64.725 31.63C65.0783 30.6407 65.679 29.8633 66.527 29.298C67.4456 28.662 68.3996 28.344 69.389 28.344H72.463C74.159 28.344 75.4663 29.0153 76.385 30.358C77.3743 31.63 77.6216 33.0787 77.127 34.704ZM107.268 103.072C107.268 104.352 106.948 105.525 106.308 106.592C105.668 107.701 104.815 108.576 103.748 109.216C102.681 109.899 101.487 110.24 100.164 110.24H91.268C90.4574 110.24 89.7534 109.941 89.156 109.344C88.6014 108.789 88.324 108.107 88.324 107.296V105.504C88.324 104.693 88.6014 104.011 89.156 103.456C89.7534 102.901 90.4574 102.624 91.268 102.624H98.82C99.0334 102.624 99.2254 102.539 99.396 102.368C99.6094 102.197 99.716 102.005 99.716 101.792V100.832C99.716 100.619 99.6094 100.427 99.396 100.256C99.2254 100.085 99.0334 100 98.82 100H91.268C89.3054 100 87.62 99.3173 86.212 97.952C84.804 96.544 84.1 94.8373 84.1 92.832V74.016C84.1 72.6933 84.42 71.4987 85.06 70.432C85.7427 69.3227 86.6174 68.448 87.684 67.808C88.7507 67.168 89.9454 66.848 91.268 66.848H100.164C101.487 66.848 102.681 67.168 103.748 67.808C104.815 68.448 105.668 69.3227 106.308 70.432C106.948 71.4987 107.268 72.6933 107.268 74.016V103.072ZM99.716 91.616V75.36C99.716 75.104 99.6094 74.8907 99.396 74.72C99.2254 74.5493 99.0334 74.464 98.82 74.464H92.612C92.3987 74.464 92.1854 74.5493 91.972 74.72C91.8014 74.8907 91.716 75.104 91.716 75.36V91.616C91.716 91.8293 91.8014 92.0213 91.972 92.192C92.1854 92.3627 92.3987 92.448 92.612 92.448H98.82C99.0334 92.448 99.2254 92.3627 99.396 92.192C99.6094 92.0213 99.716 91.8293 99.716 91.616Z" fill="white"/>
</svg>
