<svg width="128" height="128" viewBox="0 0 128 128" fill="none" xmlns="http://www.w3.org/2000/svg">
<rect width="128" height="128" rx="32" fill="#1F1E24"/>
<path d="M73.1582 34.704L52.5942 96.714C52.3115 97.6327 51.7109 98.41 50.7922 99.046C49.9442 99.682 49.0255 100 48.0362 100H43.6902C42.7009 100 41.7822 99.682 40.9342 99.046C40.1569 98.41 39.5915 97.6327 39.2382 96.714L18.6742 34.704C18.1089 33.1493 18.3209 31.7007 19.3102 30.358C20.2289 29.0153 21.5362 28.344 23.2322 28.344H26.3062C28.6382 28.344 30.1929 29.4393 30.9702 31.63L45.2802 75.302C45.7042 75.7967 46.0929 75.7967 46.4462 75.302C47.9302 70.7087 49.4495 66.0093 51.0042 61.204C52.6295 56.328 54.1489 51.77 55.5622 47.53C56.9755 43.2193 58.1415 39.6507 59.0602 36.824L60.7562 31.63C61.1095 30.6407 61.7102 29.8633 62.5582 29.298C63.4769 28.662 64.4309 28.344 65.4202 28.344H68.4942C70.1902 28.344 71.4975 29.0153 72.4162 30.358C73.4055 31.63 73.6529 33.0787 73.1582 34.704ZM111.299 97.056C111.299 97.8667 111.001 98.5707 110.403 99.168C109.849 99.7227 109.166 100 108.355 100H106.563C105.753 100 105.049 99.7227 104.451 99.168C103.897 98.5707 103.619 97.8667 103.619 97.056V75.36C103.619 74.7627 103.342 74.464 102.787 74.464H100.291C99.7793 74.464 99.5233 74.7627 99.5233 75.36V97.056C99.5233 97.8667 99.2246 98.5707 98.6273 99.168C98.0726 99.7227 97.39 100 96.5793 100H94.8513C94.0406 100 93.3366 99.7227 92.7393 99.168C92.1846 98.5707 91.9073 97.8667 91.9073 97.056V75.36C91.9073 74.7627 91.6513 74.464 91.1393 74.464H88.6433C88.0886 74.464 87.8113 74.7627 87.8113 75.36V97.056C87.8113 97.8667 87.5126 98.5707 86.9153 99.168C86.3606 99.7227 85.678 100 84.8673 100H83.0753C82.2646 100 81.5606 99.7227 80.9633 99.168C80.4086 98.5707 80.1313 97.8667 80.1313 97.056V74.016C80.1313 72.6933 80.4513 71.4987 81.0913 70.432C81.774 69.3227 82.6486 68.448 83.7153 67.808C84.782 67.168 85.9766 66.848 87.2993 66.848H92.3553C93.294 66.848 94.1473 67.04 94.9153 67.424C95.4273 67.552 95.9606 67.552 96.5153 67.424C97.2833 67.04 98.1366 66.848 99.0753 66.848H104.131C105.454 66.848 106.649 67.168 107.715 67.808C108.782 68.448 109.635 69.3227 110.275 70.432C110.958 71.4987 111.299 72.6933 111.299 74.016V97.056Z" fill="white"/>
</svg>
