<svg width="128" height="128" viewBox="0 0 128 128" fill="none" xmlns="http://www.w3.org/2000/svg">
<g clip-path="url(#clip0_1318_949)">
<rect width="128" height="128" rx="32" fill="#1F1E24"/>
<path d="M74.3145 31.704L53.7505 93.714C53.4678 94.6327 52.8671 95.41 51.9485 96.046C51.1005 96.682 50.1818 97 49.1925 97H44.8465C43.8571 97 42.9385 96.682 42.0905 96.046C41.3131 95.41 40.7478 94.6327 40.3945 93.714L19.8305 31.704C19.2651 30.1493 19.4771 28.7007 20.4665 27.358C21.3851 26.0153 22.6925 25.344 24.3885 25.344H27.4625C29.7945 25.344 31.3491 26.4393 32.1265 28.63L46.4365 72.302C46.8605 72.7967 47.2491 72.7967 47.6025 72.302C49.0865 67.7087 50.6058 63.0093 52.1605 58.204C53.7858 53.328 55.3051 48.77 56.7185 44.53C58.1318 40.2193 59.2978 36.6507 60.2165 33.824L61.9125 28.63C62.2658 27.6407 62.8665 26.8633 63.7145 26.298C64.6331 25.662 65.5871 25.344 66.5765 25.344H69.6505C71.3465 25.344 72.6538 26.0153 73.5725 27.358C74.5618 28.63 74.8091 30.0787 74.3145 31.704Z" fill="white"/>
<path d="M73.4024 76.624C73.4024 77.616 73.0344 78.48 72.2984 79.216C71.5944 79.92 70.7624 80.272 69.8024 80.272C68.8104 80.272 67.9464 79.92 67.2104 79.216C66.5064 78.48 66.1544 77.616 66.1544 76.624C66.1544 75.664 66.5064 74.832 67.2104 74.128C67.9464 73.392 68.8104 73.024 69.8024 73.024C70.7624 73.024 71.5944 73.392 72.2984 74.128C73.0344 74.832 73.4024 75.664 73.4024 76.624ZM72.6344 103.792C72.6344 104.4 72.4104 104.928 71.9624 105.376C71.5464 105.792 71.0344 106 70.4264 106H69.1304C68.5224 106 67.9944 105.792 67.5464 105.376C67.1304 104.928 66.9224 104.4 66.9224 103.792V83.872C66.9224 83.264 67.1304 82.752 67.5464 82.336C67.9944 81.888 68.5224 81.664 69.1304 81.664H70.4264C71.0344 81.664 71.5464 81.888 71.9624 82.336C72.4104 82.752 72.6344 83.264 72.6344 83.872V103.792ZM94.6398 103.792C94.6398 104.4 94.4318 104.928 94.0158 105.376C93.5998 105.792 93.0878 106 92.4798 106H91.1358C90.5278 106 90.0158 105.792 89.5998 105.376C89.1838 104.928 88.9758 104.4 88.9758 103.792V87.52C88.9758 87.328 88.8958 87.168 88.7358 87.04C88.6078 86.912 88.4638 86.848 88.3038 86.848H83.6478C83.4878 86.848 83.3278 86.912 83.1678 87.04C83.0398 87.168 82.9758 87.328 82.9758 87.52V103.792C82.9758 104.4 82.7678 104.928 82.3518 105.376C81.9358 105.792 81.4238 106 80.8158 106H79.4718C78.8638 106 78.3358 105.792 77.8878 105.376C77.4718 104.928 77.2638 104.4 77.2638 103.792V86.512C77.2638 85.52 77.5038 84.624 77.9838 83.824C78.4958 82.992 79.1518 82.336 79.9518 81.856C80.7518 81.376 81.6478 81.136 82.6398 81.136H89.3118C90.3038 81.136 91.1998 81.376 91.9998 81.856C92.7998 82.336 93.4398 82.992 93.9198 83.824C94.3998 84.624 94.6398 85.52 94.6398 86.512V103.792ZM112.801 103.792C112.801 104.4 112.593 104.928 112.177 105.376C111.761 105.792 111.249 106 110.641 106H103.921C102.449 106 101.185 105.488 100.129 104.464C99.105 103.408 98.593 102.128 98.593 100.624V75.76C98.593 75.12 98.801 74.592 99.217 74.176C99.633 73.76 100.145 73.552 100.753 73.552H102.097C102.705 73.552 103.217 73.76 103.633 74.176C104.081 74.592 104.305 75.12 104.305 75.76V80.56C104.305 80.944 104.513 81.136 104.929 81.136H110.641C111.249 81.136 111.761 81.36 112.177 81.808C112.593 82.224 112.801 82.752 112.801 83.392V84.688C112.801 85.232 112.593 85.744 112.177 86.224C111.697 86.64 111.185 86.848 110.641 86.848H104.929C104.513 86.848 104.305 87.072 104.305 87.52V99.712C104.305 100.128 104.513 100.336 104.929 100.336H110.641C111.249 100.336 111.761 100.544 112.177 100.96C112.593 101.376 112.801 101.904 112.801 102.544V103.792Z" fill="#DE8C00"/>
</g>
<defs>
<clipPath id="clip0_1318_949">
<rect width="128" height="128" rx="32" fill="white"/>
</clipPath>
</defs>
</svg>
