<svg width="128" height="128" viewBox="0 0 128 128" fill="none" xmlns="http://www.w3.org/2000/svg">
<g clip-path="url(#clip0_1318_955)">
<rect width="128" height="128" rx="32" fill="#1F1E24"/>
<path d="M74.3145 31.704L53.7505 93.714C53.4678 94.6327 52.8671 95.41 51.9485 96.046C51.1005 96.682 50.1818 97 49.1925 97H44.8465C43.8571 97 42.9385 96.682 42.0905 96.046C41.3131 95.41 40.7478 94.6327 40.3945 93.714L19.8305 31.704C19.2651 30.1493 19.4771 28.7007 20.4665 27.358C21.3851 26.0153 22.6925 25.344 24.3885 25.344H27.4625C29.7945 25.344 31.3491 26.4393 32.1265 28.63L46.4365 72.302C46.8605 72.7967 47.2491 72.7967 47.6025 72.302C49.0865 67.7087 50.6058 63.0093 52.1605 58.204C53.7858 53.328 55.3051 48.77 56.7185 44.53C58.1318 40.2193 59.2978 36.6507 60.2165 33.824L61.9125 28.63C62.2658 27.6407 62.8665 26.8633 63.7145 26.298C64.6331 25.662 65.5871 25.344 66.5765 25.344H69.6505C71.3465 25.344 72.6538 26.0153 73.5725 27.358C74.5618 28.63 74.8091 30.0787 74.3145 31.704Z" fill="white"/>
<path d="M83.5148 100.624C83.5148 102.128 82.9868 103.408 81.9308 104.464C80.9068 105.488 79.6588 106 78.1868 106H71.5148C70.0428 106 68.7788 105.488 67.7228 104.464C66.6668 103.408 66.1388 102.128 66.1388 100.624V98.656C66.1388 98.048 66.3468 97.536 66.7628 97.12C67.2108 96.672 67.7388 96.448 68.3468 96.448H69.6908C70.2988 96.448 70.8108 96.672 71.2268 97.12C71.6428 97.536 71.8508 98.048 71.8508 98.656V99.712C71.8508 100.128 72.0748 100.336 72.5228 100.336H77.1788C77.3388 100.336 77.4828 100.272 77.6108 100.144C77.7708 100.016 77.8508 99.872 77.8508 99.712V97.936C77.8508 97.68 77.7228 97.504 77.4668 97.408L70.5068 95.2C69.2268 94.752 68.1708 93.984 67.3388 92.896C66.5388 91.808 66.1388 90.576 66.1388 89.2V86.512C66.1388 85.52 66.3788 84.624 66.8588 83.824C67.3708 83.024 68.0268 82.384 68.8268 81.904C69.6268 81.392 70.5228 81.136 71.5148 81.136H78.1868C79.1788 81.136 80.0748 81.392 80.8748 81.904C81.6748 82.384 82.3148 83.024 82.7948 83.824C83.2748 84.624 83.5148 85.52 83.5148 86.512V88.432C83.5148 89.04 83.3068 89.568 82.8908 90.016C82.4748 90.432 81.9628 90.64 81.3548 90.64H80.0108C79.4028 90.64 78.8908 90.432 78.4748 90.016C78.0588 89.568 77.8508 89.04 77.8508 88.432V87.52C77.8508 87.328 77.7708 87.168 77.6108 87.04C77.4828 86.912 77.3388 86.848 77.1788 86.848H72.5228C72.0748 86.848 71.8508 87.072 71.8508 87.52V89.2C71.8508 89.52 71.9788 89.712 72.2348 89.776L79.1948 91.984C80.5068 92.4 81.5468 93.152 82.3148 94.24C83.1148 95.328 83.5148 96.56 83.5148 97.936V100.624ZM101.676 103.792C101.676 104.4 101.468 104.928 101.052 105.376C100.636 105.792 100.124 106 99.516 106H92.796C91.324 106 90.06 105.488 89.004 104.464C87.98 103.408 87.468 102.128 87.468 100.624V75.76C87.468 75.12 87.676 74.592 88.092 74.176C88.508 73.76 89.02 73.552 89.628 73.552H90.972C91.58 73.552 92.092 73.76 92.508 74.176C92.956 74.592 93.18 75.12 93.18 75.76V80.56C93.18 80.944 93.388 81.136 93.804 81.136H99.516C100.124 81.136 100.636 81.36 101.052 81.808C101.468 82.224 101.676 82.752 101.676 83.392V84.688C101.676 85.232 101.468 85.744 101.052 86.224C100.572 86.64 100.06 86.848 99.516 86.848H93.804C93.388 86.848 93.18 87.072 93.18 87.52V99.712C93.18 100.128 93.388 100.336 93.804 100.336H99.516C100.124 100.336 100.636 100.544 101.052 100.96C101.468 101.376 101.676 101.904 101.676 102.544V103.792ZM119.817 84.688C119.817 85.296 119.609 85.808 119.193 86.224C118.777 86.64 118.265 86.848 117.657 86.848H111.945C111.529 86.848 111.321 87.072 111.321 87.52V103.792C111.321 104.4 111.097 104.928 110.649 105.376C110.233 105.792 109.721 106 109.113 106H107.769C107.161 106 106.649 105.792 106.233 105.376C105.817 104.928 105.609 104.4 105.609 103.792V86.512C105.609 85.52 105.849 84.624 106.329 83.824C106.809 82.992 107.449 82.336 108.249 81.856C109.049 81.376 109.945 81.136 110.937 81.136H117.657C118.265 81.136 118.777 81.36 119.193 81.808C119.609 82.224 119.817 82.752 119.817 83.392V84.688Z" fill="#DE8C00"/>
</g>
<defs>
<clipPath id="clip0_1318_955">
<rect width="128" height="128" rx="32" fill="white"/>
</clipPath>
</defs>
</svg>
